<svg width="25" height="25" viewBox="0 0 25 25" fill="none" xmlns="http://www.w3.org/2000/svg">
<path d="M20.5999 11.3892C20.2714 10.9725 19.8715 10.6114 19.5001 10.2503C18.5431 9.41694 17.4576 8.8197 16.5435 7.94467C14.4153 5.91684 13.944 2.56952 15.3009 0C13.944 0.319454 12.7585 1.0417 11.7444 1.83339C8.04507 4.72236 6.58819 9.81973 8.33073 14.1948C8.38786 14.3337 8.44499 14.4726 8.44499 14.6532C8.44499 14.9588 8.23075 15.2365 7.94508 15.3477C7.61657 15.4866 7.27378 15.4032 7.0024 15.181C6.92085 15.1154 6.85297 15.0353 6.80244 14.9449C5.18845 12.9587 4.93135 10.1114 6.01687 7.83356C3.63159 9.7225 2.33183 12.917 2.51751 15.931C2.60321 16.6255 2.6889 17.3199 2.93172 18.0144C3.13168 18.8478 3.51732 19.6811 3.94582 20.4172C5.48839 22.8201 8.15933 24.5424 11.0302 24.8896C14.0868 25.2646 17.3576 24.7229 19.7001 22.6673C22.3139 20.3617 23.228 16.6671 21.8854 13.5004L21.6997 13.1393C21.3998 12.5004 20.5999 11.3892 20.5999 11.3892ZM16.0865 20.1395C15.6865 20.4728 15.0295 20.8339 14.5153 20.9728C12.9156 21.5284 11.3159 20.7506 10.3732 19.8339C12.0729 19.445 13.087 18.2227 13.3869 16.9866C13.6298 15.8755 13.1727 14.9588 12.987 13.8893C12.8156 12.8615 12.8442 11.9865 13.2298 11.0281C13.5012 11.5559 13.7869 12.0837 14.1297 12.5004C15.2295 13.8893 16.9577 14.5004 17.3291 16.3894C17.3862 16.5838 17.4148 16.7783 17.4148 16.9866C17.4576 18.1255 16.9434 19.3756 16.0865 20.1395Z" fill="white"/>
</svg>
