<svg width="20" height="14" viewBox="0 0 20 14" fill="none" xmlns="http://www.w3.org/2000/svg">
<path d="M19.3019 0.773764L15.7528 0.0460424C15.4543 -0.0155058 15.1454 -0.0153453 14.847 0.0465132C14.5485 0.108372 14.2676 0.23048 14.0233 0.404553L3.30265 7.80484L0.72812 7.69782C0.580654 7.69306 0.435338 7.73242 0.312692 7.81033C0.190045 7.88825 0.0962651 8.00079 0.0445928 8.13207C-0.00707955 8.26334 -0.0140331 8.40671 0.024714 8.54194C0.063461 8.67717 0.145951 8.79743 0.260536 8.88572L2.76746 10.7746C2.80873 10.8062 2.85786 10.8272 2.91014 10.8357C2.96241 10.8441 3.01609 10.8397 3.06604 10.8227C3.7815 10.5606 6.44617 9.21748 9.59532 7.57475L10.2263 13.7336C10.2316 13.787 10.2522 13.8379 10.2858 13.881C10.3194 13.924 10.3647 13.9575 10.4169 13.9779C10.4691 13.9983 10.5261 14.0047 10.5819 13.9966C10.6376 13.9884 10.69 13.966 10.7333 13.9316L12.1417 12.8186C12.2188 12.7572 12.2706 12.672 12.2882 12.5778L13.6233 5.4665C15.8767 4.2786 18.0287 3.12816 19.5442 2.31482C19.7014 2.23354 19.8286 2.10831 19.9084 1.95609C19.9882 1.80387 20.0169 1.63202 19.9904 1.46383C19.964 1.29564 19.8838 1.13923 19.7606 1.01579C19.6374 0.892361 19.4773 0.807868 19.3019 0.773764Z" fill="#9F9F9F"/>
</svg>
