<svg width="24" height="24" viewBox="0 0 24 24" fill="none" xmlns="http://www.w3.org/2000/svg">
    <path
        d="M17.0399 16.4406C16.8414 16.2486 16.5249 16.2539 16.3329 16.4523C16.1409 16.6508 16.1461 16.9674 16.3446 17.1594L17.0399 16.4406ZM19.6523 20.3594C19.8508 20.5514 20.1674 20.5461 20.3594 20.3477C20.5514 20.1492 20.5461 19.8326 20.3477 19.6406L19.6523 20.3594ZM11.4286 6.92857C11.1524 6.92857 10.9286 7.15243 10.9286 7.42857C10.9286 7.70471 11.1524 7.92857 11.4286 7.92857V6.92857ZM14.3571 10.8571C14.3571 11.1333 14.581 11.3571 14.8571 11.3571C15.1333 11.3571 15.3571 11.1333 15.3571 10.8571H14.3571ZM18.4333 11.4667C18.4333 15.3143 15.3143 18.4333 11.4667 18.4333V19.4333C15.8665 19.4333 19.4333 15.8665 19.4333 11.4667H18.4333ZM11.4667 18.4333C7.61908 18.4333 4.5 15.3143 4.5 11.4667H3.5C3.5 15.8665 7.0668 19.4333 11.4667 19.4333V18.4333ZM4.5 11.4667C4.5 7.61908 7.61908 4.5 11.4667 4.5V3.5C7.0668 3.5 3.5 7.0668 3.5 11.4667H4.5ZM11.4667 4.5C15.3143 4.5 18.4333 7.61908 18.4333 11.4667H19.4333C19.4333 7.0668 15.8665 3.5 11.4667 3.5V4.5ZM16.3446 17.1594L19.6523 20.3594L20.3477 19.6406L17.0399 16.4406L16.3446 17.1594ZM11.4286 7.92857C13.046 7.92857 14.3571 9.23974 14.3571 10.8571H15.3571C15.3571 8.68745 13.5983 6.92857 11.4286 6.92857V7.92857Z"
        fill="white" />
</svg>